<?xml version="1.0" standalone="no"?>
<!DOCTYPE svg PUBLIC "-//W3C//DTD SVG 20010904//EN"
 "http://www.w3.org/TR/2001/REC-SVG-20010904/DTD/svg10.dtd">
<svg version="1.0" xmlns="http://www.w3.org/2000/svg"
 width="425.000000pt" height="425.000000pt" viewBox="0 0 425.000000 425.000000"
 preserveAspectRatio="xMidYMid meet">
<metadata>
Created by potrace 1.14, written by Peter Selinger 2001-2017
</metadata>
<g transform="translate(0.000000,425.000000) scale(0.100000,-0.100000)"
fill="#000000" stroke="none">
<path d="M1244 3991 c-33 -14 -72 -34 -87 -43 -14 -10 -29 -18 -32 -18 -3 0
-52 -29 -108 -64 -382 -236 -685 -595 -847 -1004 -52 -132 -106 -334 -125
-464 -23 -165 -19 -462 10 -623 5 -25 51 -204 69 -270 20 -70 82 -216 129
-305 73 -139 85 -160 116 -202 17 -23 31 -47 31 -54 0 -6 11 -19 26 -28 14
-10 28 -26 32 -37 19 -51 295 -323 356 -351 14 -6 26 -16 26 -22 0 -6 19 -21
43 -34 23 -12 55 -33 69 -47 14 -13 38 -27 52 -31 15 -3 30 -12 34 -18 4 -7
29 -23 57 -35 27 -13 60 -32 73 -42 13 -9 37 -21 55 -24 18 -4 43 -13 57 -20
62 -31 213 -85 240 -85 7 0 26 -6 43 -14 18 -8 48 -17 67 -19 123 -16 266 -42
268 -49 5 -12 432 -10 432 2 0 6 10 10 23 10 17 0 25 9 35 40 21 70 17 88 -28
107 -22 10 -40 21 -40 26 0 18 -120 124 -193 172 l-77 50 0 51 c0 54 6 64 87
132 29 25 32 33 35 92 l3 65 -85 6 c-91 7 -130 16 -130 30 0 5 -8 9 -18 9 -25
0 -46 25 -67 78 -15 36 -79 102 -100 102 -4 0 -19 8 -33 18 -32 21 -89 45
-152 62 -73 20 -173 71 -198 101 -12 15 -46 41 -75 58 -78 44 -85 56 -84 127
0 51 -5 69 -28 107 -26 41 -32 45 -60 40 -46 -7 -77 39 -110 163 -14 54 -30
108 -35 119 -35 80 -41 191 -18 335 12 76 79 240 98 240 6 0 10 6 10 14 0 7 7
19 15 26 12 10 15 36 15 116 0 64 6 125 16 161 9 32 22 80 30 108 24 86 12
225 -20 225 -7 0 -24 8 -37 18 -13 10 -50 26 -81 36 -36 11 -62 26 -72 41 -19
28 -6 41 25 25 26 -14 38 -4 53 42 6 17 28 45 49 62 32 26 41 28 57 18 25 -15
42 -8 64 28 15 26 23 30 61 30 24 0 47 5 50 10 3 6 25 10 49 10 60 0 86 -29
86 -97 0 -38 7 -60 28 -91 29 -44 144 -148 174 -157 10 -4 18 -10 18 -15 0
-11 62 -50 72 -44 14 9 9 24 -22 56 -16 17 -30 39 -30 48 0 10 -7 23 -15 30
-32 26 -7 70 40 70 24 0 110 -90 123 -129 7 -19 12 -49 12 -67 0 -27 4 -34 20
-34 21 0 40 27 40 59 0 15 6 21 24 21 20 0 24 -6 29 -45 2 -26 7 -48 9 -50 10
-11 64 -15 77 -6 11 7 6 16 -23 42 -40 38 -46 63 -17 79 34 18 76 11 127 -21
27 -18 64 -38 82 -46 19 -8 32 -20 32 -31 0 -19 34 -62 50 -62 5 0 15 -6 22
-12 8 -7 23 -18 33 -24 26 -14 30 -49 12 -88 -9 -17 -18 -39 -21 -50 -7 -22
-51 -19 -131 10 -60 21 -70 33 -44 52 14 9 19 25 19 57 0 35 -5 48 -26 64 -38
30 -60 27 -67 -8 -4 -19 -22 -40 -54 -64 -126 -92 -187 -202 -157 -281 7 -19
83 -56 112 -56 25 0 38 -17 46 -61 4 -21 20 -48 41 -69 l34 -33 5 24 c3 13 8
47 11 74 4 28 11 55 17 62 6 8 4 20 -7 36 -12 19 -15 44 -13 98 3 67 5 74 25
77 40 6 107 -19 138 -52 23 -25 42 -34 77 -38 37 -4 59 -16 116 -62 64 -51
121 -118 122 -142 1 -5 32 -34 71 -64 97 -75 113 -110 49 -110 -35 0 -97 51
-106 87 -7 27 -4 27 -102 -1 -67 -19 -131 -62 -132 -88 0 -14 21 -8 50 12 32
23 51 19 65 -13 8 -17 20 -23 52 -25 50 -4 64 -27 31 -51 -41 -30 -116 -69
-122 -64 -16 16 -57 -12 -87 -59 -19 -29 -46 -64 -62 -78 -32 -29 -67 -119
-67 -171 0 -34 -6 -42 -65 -89 -70 -55 -88 -82 -99 -143 -5 -26 -2 -44 9 -59
8 -13 15 -37 15 -55 0 -28 -4 -33 -24 -33 -19 0 -29 10 -45 44 -28 58 -51 76
-112 92 -40 11 -60 11 -95 2 -34 -9 -54 -9 -92 1 -75 19 -128 2 -170 -55 -31
-42 -33 -48 -30 -121 l3 -77 54 -38 c65 -46 93 -48 129 -9 36 38 73 46 103 22
l23 -19 -17 -55 c-23 -72 -16 -87 38 -87 44 0 102 -23 122 -49 16 -21 16 -46
1 -89 -12 -32 -11 -35 12 -54 14 -10 34 -26 44 -35 11 -9 46 -18 80 -20 58 -5
63 -3 101 30 60 52 102 63 168 48 40 -10 59 -11 75 -2 11 6 52 11 91 11 38 0
73 4 76 10 8 12 125 13 125 1 0 -20 99 -42 209 -48 l113 -6 54 -54 c49 -50 57
-54 86 -48 18 3 42 10 53 15 11 5 58 16 105 25 47 9 90 21 96 26 17 14 84 -17
84 -40 0 -10 -18 -41 -40 -69 -22 -27 -40 -55 -40 -60 0 -6 -7 -18 -16 -27
-18 -18 -32 -105 -17 -105 36 0 285 258 363 376 8 12 30 43 48 69 17 25 32 48
32 51 0 3 13 24 28 47 16 23 36 60 46 82 10 22 31 67 47 100 48 101 94 235
118 340 12 55 26 107 31 116 4 8 11 46 15 83 l8 68 -32 -16 c-17 -9 -31 -21
-31 -26 0 -5 -6 -15 -14 -22 -7 -8 -21 -29 -31 -47 -16 -31 -20 -33 -56 -28
-49 6 -110 67 -141 140 -12 29 -26 55 -31 58 -5 3 -8 8 -7 10 1 4 -1 14 -20
69 -7 20 -14 115 -17 215 -4 162 -12 216 -34 235 -11 10 -29 73 -29 104 1 17
7 42 15 56 17 30 19 50 5 50 -5 0 -10 -10 -10 -23 0 -28 -39 -67 -67 -67 -26
0 -70 34 -79 62 -3 12 -17 33 -30 47 -25 27 -31 55 -14 66 19 12 39 62 33 83
-4 16 -18 24 -56 32 -69 15 -77 23 -77 85 0 30 -3 60 -6 69 -8 20 -24 21 -24
2 0 -8 -8 -24 -18 -36 l-18 -22 -42 21 c-23 11 -49 21 -58 21 -15 0 -13 -5 9
-28 36 -37 23 -61 -20 -38 -30 15 -40 32 -63 110 -7 21 -21 47 -32 58 -25 25
-21 64 7 60 10 -2 32 -15 48 -28 16 -13 32 -24 37 -24 5 0 30 -10 57 -22 26
-12 51 -21 55 -20 3 1 12 -5 18 -13 7 -8 16 -15 21 -15 18 0 8 21 -27 57 -41
43 -67 89 -59 103 3 5 1 11 -5 15 -5 3 -10 17 -10 31 0 30 -37 114 -49 114 -5
0 -17 23 -26 50 -15 46 -22 53 -76 80 -72 37 -92 38 -84 7 4 -15 1 -28 -10
-37 -14 -12 -13 -15 14 -26 17 -7 31 -18 31 -24 0 -5 5 -10 11 -10 6 0 28 -15
49 -34 20 -18 46 -39 56 -45 19 -11 19 -12 0 -24 -10 -7 -28 -22 -39 -34 -27
-30 -54 -29 -99 2 -20 14 -41 25 -45 25 -4 0 -20 22 -35 49 -24 43 -36 53
-113 91 -84 41 -145 89 -145 115 0 20 27 37 78 50 37 10 48 17 50 35 4 22 2
23 -43 17 -47 -7 -47 -7 -97 48 -28 31 -71 68 -97 82 -25 15 -66 42 -90 60
-53 40 -64 40 -103 8 -30 -25 -82 -34 -93 -15 -3 6 -36 10 -72 10 -49 0 -71
-5 -86 -17 -15 -14 -37 -18 -109 -18 -89 0 -90 0 -119 33 -32 36 -80 43 -115
17 -10 -8 -32 -15 -47 -15 -64 0 -116 -21 -135 -54 -16 -26 -28 -33 -80 -44
-53 -11 -62 -16 -62 -35 0 -36 -14 -48 -61 -54 -53 -7 -75 -24 -83 -65 -6 -31
-72 -102 -152 -165 -61 -48 -95 -44 -68 9 19 37 12 58 -20 58 -27 0 -66 42
-66 70 0 21 64 90 83 90 33 0 52 28 57 86 5 56 6 57 45 71 74 25 96 80 50 123
-13 12 -22 27 -19 31 9 15 -18 8 -82 -20z m1198 -595 c19 -13 58 -31 87 -41
63 -20 159 -83 200 -131 40 -45 41 -87 4 -127 -26 -27 -28 -34 -31 -136 l-4
-108 39 -32 c36 -30 37 -33 19 -46 -10 -8 -42 -17 -70 -20 -62 -8 -123 16
-143 55 -7 14 -21 32 -31 40 -22 18 -42 71 -42 111 0 21 -14 40 -62 84 -35 31
-83 67 -108 80 -53 28 -94 69 -110 110 l-11 30 -19 -25 c-10 -14 -21 -39 -25
-57 -7 -41 -20 -49 -50 -29 -48 32 -56 55 -42 125 8 39 20 69 32 77 22 16 95
19 95 4 0 -20 49 -10 68 14 38 49 148 60 204 22z m513 -223 c23 -22 13 -68
-24 -113 -36 -45 -55 -48 -86 -14 -35 38 -33 77 8 114 36 33 77 39 102 13z
m-833 -1883 c51 -11 109 -24 128 -28 37 -7 53 -38 28 -53 -27 -17 -70 -8 -121
26 -29 19 -74 39 -101 44 -52 10 -86 31 -49 31 12 0 63 -9 115 -20z m342 -87
c13 -25 12 -28 -11 -40 -17 -9 -30 -10 -43 -3 -10 6 -27 10 -37 10 -10 0 -27
8 -38 16 -20 15 -20 15 -1 30 11 8 41 14 68 14 41 0 49 -3 62 -27z"/>
<path d="M3690 3455 c6 -15 10 -53 10 -86 0 -53 3 -63 35 -98 42 -47 45 -69 8
-76 -54 -11 -76 -20 -81 -32 -2 -7 2 -13 10 -13 7 0 24 -7 36 -16 28 -19 15
-41 -26 -46 -24 -3 -27 -7 -26 -41 1 -21 6 -48 12 -60 6 -12 13 -40 16 -61 6
-45 69 -146 90 -146 18 0 29 33 21 61 -4 12 -4 45 0 75 6 47 9 54 29 54 57 0
62 66 10 134 -33 43 -35 49 -20 65 11 13 14 33 12 83 -4 64 -6 68 -65 142 -70
86 -85 99 -71 61z"/>
<path d="M1105 1723 c10 -57 35 -132 47 -140 8 -4 9 0 3 13 -12 30 -35 117
-35 136 0 9 -5 20 -11 23 -7 5 -8 -5 -4 -32z"/>
</g>
</svg>
